<?xml version="1.0" encoding="UTF-8" standalone="no"?>
<!DOCTYPE svg PUBLIC "-//W3C//DTD SVG 1.1//EN" "http://www.w3.org/Graphics/SVG/1.1/DTD/svg11.dtd">
<svg width="100%" height="100%" viewBox="0 0 512 512" version="1.1" xmlns="http://www.w3.org/2000/svg" xmlns:xlink="http://www.w3.org/1999/xlink" xml:space="preserve" xmlns:serif="http://www.serif.com/" style="fill-rule:evenodd;clip-rule:evenodd;stroke-linejoin:round;stroke-miterlimit:2;">
    <g transform="matrix(1.49613,0,0,1.49613,-114.564,-279.291)">
        <g transform="matrix(274.555,0,0,274.555,71.1249,459.125)">
            <path d="M0.047,-0L0.047,-0.728L0.36,-0.728C0.414,-0.728 0.462,-0.718 0.502,-0.698C0.543,-0.678 0.574,-0.65 0.597,-0.613C0.62,-0.576 0.631,-0.532 0.631,-0.48C0.631,-0.43 0.62,-0.387 0.598,-0.352C0.576,-0.317 0.546,-0.29 0.507,-0.271L0.655,-0L0.44,-0L0.313,-0.24L0.244,-0.24L0.244,-0L0.047,-0ZM0.244,-0.394L0.313,-0.394C0.348,-0.394 0.376,-0.4 0.395,-0.414C0.415,-0.427 0.425,-0.449 0.425,-0.48C0.425,-0.511 0.415,-0.534 0.395,-0.548C0.376,-0.562 0.348,-0.569 0.313,-0.569L0.244,-0.569L0.244,-0.394Z" style="fill:rgb(141,215,172);fill-rule:nonzero;"/>
        </g>
        <g transform="matrix(274.555,0,0,274.555,254.519,459.125)">
            <path d="M0.047,-0L0.047,-0.728L0.571,-0.728L0.571,-0.568L0.244,-0.568L0.244,-0.445L0.544,-0.445L0.544,-0.29L0.244,-0.29L0.244,-0.159L0.569,-0.159L0.569,-0L0.047,-0Z" style="fill:rgb(141,215,172);fill-rule:nonzero;"/>
        </g>
    </g>
</svg>
